Coordinates
version=1
nRows=14
nColumns=40
inDegrees=yes

Units are S.I. units (second, meters, Newtons, ...)
If the header above contains a line with 'inDegrees', this indicates whether rotational values are in degrees (yes) or radians (no).

endheader
time	pelvis_tilt	pelvis_list	pelvis_rotation	pelvis_tx	pelvis_ty	pelvis_tz	hip_flexion_r	hip_adduction_r	hip_rotation_r	knee_angle_r	knee_angle_r_beta	ankle_angle_r	subtalar_angle_r	mtp_angle_r	hip_flexion_l	hip_adduction_l	hip_rotation_l	knee_angle_l	knee_angle_l_beta	ankle_angle_l	subtalar_angle_l	mtp_angle_l	lumbar_extension	lumbar_bending	lumbar_rotation	arm_flex_r	arm_add_r	arm_rot_r	elbow_flex_r	pro_sup_r	wrist_flex_r	wrist_dev_r	arm_flex_l	arm_add_l	arm_rot_l	elbow_flex_l	pro_sup_l	wrist_flex_l	wrist_dev_l
      0.96000000	      2.21781576	      8.78292312	      6.66180649	      2.67785600	      0.93611259	      0.62791850	     12.92268620	     -9.67762372	      1.26387767	    100.55756094	      1.75506053	      1.47937884	      0.00000000	      0.00000000	     20.47490320	     14.62017940	      2.26960110	     51.84899057	      0.90493560	     21.15167367	      0.00000000	      0.00000000	    -13.66336325	    -10.22017823	     -5.44307441	     -9.29011990	    -11.26167787	     24.12616457	     61.39206423	     57.73985824	      0.00000000	      0.00000000	    -11.09528761	    -15.44585966	      8.98571395	     86.85591900	     61.93735419	      0.00000000	      0.00000000
      0.96500000	      2.34223507	      8.65629832	      6.61123442	      2.69264500	      0.93666210	      0.62884679	     14.26216664	     -9.41514323	      1.73250229	    100.67988920	      1.75719556	      1.55863532	      0.00000000	      0.00000000	     19.28668497	     14.44273397	      2.66809144	     51.85938469	      0.90511701	     21.29043203	      0.00000000	      0.00000000	    -13.71262146	    -10.07002537	     -6.24941347	     -9.86037776	    -11.36244955	     24.12754242	     61.18169184	     57.71096564	      0.00000000	      0.00000000	    -10.64301553	    -15.42009820	      8.98072518	     87.05190233	     61.96518899	      0.00000000	      0.00000000
      0.97000000	      2.16725146	      8.08774115	      6.73615541	      2.70723502	      0.93701657	      0.62967218	     15.90977249	     -8.70771845	      1.87986837	    100.64833700	      1.75664487	      1.86039572	      0.00000000	      0.00000000	     18.46048331	     13.83229758	      3.23524108	     52.01252082	      0.90778974	     22.42233193	      0.00000000	      0.00000000	    -13.42553184	     -9.49269095	     -6.73896766	    -10.63399124	    -11.44325665	     23.75856871	     60.59069154	     57.52323335	      0.00000000	      0.00000000	    -10.16140145	    -15.23986143	      8.76940274	     88.76247486	     62.24090766	      0.00000000	      0.00000000
      0.97500000	      2.25355870	      7.92954292	      6.56631970	      2.72179776	      0.93773836	      0.63022263	     17.35340716	     -8.53605596	      2.40490955	    100.67935329	      1.75718620	      2.20013007	      0.00000000	      0.00000000	     17.23739605	     13.62321264	      3.53418523	     51.86535370	      0.90522119	     22.60260027	      0.00000000	      0.00000000	    -13.42446306	     -9.19376477	     -7.52247719	    -11.17955530	    -11.60667724	     23.73726430	     60.40521023	     57.49278966	      0.00000000	      0.00000000	     -9.69053205	    -15.17545147	      8.74947760	     89.02753159	     62.27734439	      0.00000000	      0.00000000
      0.98000000	      2.14697459	      7.55763954	      6.62050332	      2.73692711	      0.93901705	      0.63082929	     18.71979379	     -8.06009529	      2.53123160	    100.24428881	      1.74959290	      2.89648296	      0.00000000	      0.00000000	     15.93615529	     13.24597065	      4.23884278	     51.25120578	      0.89450229	     23.34982997	      0.00000000	      0.00000000	    -13.05130050	     -8.80100322	     -7.98748663	    -11.98765235	    -11.84817011	     23.69782929	     60.17818670	     57.44423491	      0.00000000	      0.00000000	     -9.14975257	    -15.04025507	      8.56288168	     89.90842336	     62.38719658	      0.00000000	      0.00000000
      0.98500000	      1.93907153	      7.13722427	      6.49775037	      2.75118801	      0.93972534	      0.63186285	     20.41470255	     -7.45846245	      2.87761610	     99.99414703	      1.74522710	      3.50240789	      0.00000000	      0.00000000	     15.04848635	     12.67807701	      4.38578528	     51.02357299	      0.89052934	     23.98925323	      0.00000000	      0.00000000	    -12.79138994	     -8.34008537	     -8.51074477	    -12.85900756	    -12.00930428	     23.26751794	     60.17636524	     57.32558299	      0.00000000	      0.00000000	     -9.04553273	    -14.84493005	      8.17396173	     92.06911215	     62.73213236	      0.00000000	      0.00000000
      0.99000000	      1.85876554	      6.88167550	      6.30919171	      2.76569411	      0.94096214	      0.63271436	     21.89176327	     -7.04335836	      3.22553002	     99.51834716	      1.73692282	      3.67912018	      0.00000000	      0.00000000	     13.80723763	     12.31141273	      4.55873068	     50.40188003	      0.87967876	     24.17445189	      0.00000000	      0.00000000	    -12.52675795	     -8.03991263	     -9.22064344	    -13.44118514	    -12.20352987	     23.24622645	     60.06041623	     57.30481263	      0.00000000	      0.00000000	     -8.53261697	    -14.77484340	      8.12101072	     92.44630679	     62.78041200	      0.00000000	      0.00000000
      0.99500000	      2.04314938	      6.18380923	      6.25637068	      2.78046313	      0.94329758	      0.63333333	     22.86602205	     -6.15463429	      3.23469315	     98.61431324	      1.72114446	      3.98662686	      0.00000000	      0.00000000	     12.24357975	     11.37664245	      4.82183996	     49.71412661	      0.86767519	     24.52368792	      0.00000000	      0.00000000	    -12.55668076	     -7.16060559	     -9.60416695	    -14.31369431	    -12.60250675	     23.06504671	     60.24353110	     57.26182566	      0.00000000	      0.00000000	     -7.98019941	    -14.42005407	      7.77126333	     94.22237716	     63.04400246	      0.00000000	      0.00000000
      1.00000000	      1.93530018	      5.91047901	      6.17387398	      2.79539751	      0.94518563	      0.63330819	     24.13995798	     -5.87147508	      3.41360800	     97.78470170	      1.70666500	      4.12732766	      0.00000000	      0.00000000	     10.95810791	     11.00534226	      4.89084439	     48.95543502	      0.85443353	     24.57918106	      0.00000000	      0.00000000	    -12.14390884	     -6.74991285	    -10.36698491	    -14.94169064	    -12.93582248	     22.98782938	     60.16817913	     57.23929864	      0.00000000	      0.00000000	     -7.58936067	    -14.34537417	      7.76717082	     94.58664340	     63.10419252	      0.00000000	      0.00000000
      1.00500000	      2.59944398	      5.17109924	      6.23685018	      2.81046654	      0.94914083	      0.63352177	     24.28798515	     -5.02656530	      3.04864792	     96.39932941	      1.68248569	      4.70519380	      0.00000000	      0.00000000	      8.70345497	     10.00786963	      5.37519833	     47.83365898	      0.83485484	     24.34699294	      0.00000000	      0.00000000	    -12.76225354	     -5.66376366	    -10.93324190	    -15.78188050	    -13.46762265	     22.61307025	     60.85343418	     57.25046065	      0.00000000	      0.00000000	     -7.43079841	    -14.00401081	      7.46337016	     96.30947948	     63.38761479	      0.00000000	      0.00000000
      1.01000000	      2.52149436	      4.73902627	      6.16172684	      2.82538231	      0.95193168	      0.63395396	     25.37806795	     -4.51686396	      3.17054844	     95.21771116	      1.66186257	      5.19455286	      0.00000000	      0.00000000	      7.39797740	      9.41819182	      5.57296235	     46.92584868	      0.81901056	     23.86050418	      0.00000000	      0.00000000	    -12.46309347	     -5.10489777	    -11.54987734	    -16.59480719	    -13.84175742	     22.55659938	     61.01902122	     57.24836968	      0.00000000	      0.00000000	     -7.17200848	    -13.91269104	      7.34291878	     97.14418565	     63.53587979	      0.00000000	      0.00000000
      1.01500000	      2.55597790	      4.42760987	      5.90979036	      2.84043022	      0.95526391	      0.63500638	     26.33476892	     -4.10261799	      3.25028436	     93.91667585	      1.63915522	      5.80830177	      0.00000000	      0.00000000	      5.89435034	      8.86567441	      5.57634861	     45.74384002	      0.79838062	     23.07068238	      0.00000000	      0.00000000	    -12.25841489	     -4.71237900	    -12.02024351	    -17.35658525	    -14.19034715	     22.27607007	     61.50682408	     57.24402761	      0.00000000	      0.00000000	     -7.00241763	    -13.81483313	      7.05250426	     98.39033197	     63.75393477	      0.00000000	      0.00000000
      1.02000000	      2.23843613	      3.96104160	      5.99188666	      2.85601002	      0.95853648	      0.63561564	     27.48854085	     -3.63410446	      3.07904828	     92.35849475	      1.61195983	      5.93055163	      0.00000000	      0.00000000	      4.83254393	      8.24042611	      5.91055006	     44.76172356	      0.78123946	     22.39396504	      0.00000000	      0.00000000	    -11.64219015	     -4.17347039	    -12.74902071	    -18.09595885	    -14.44783752	     22.21683830	     61.42270920	     57.21735711	      0.00000000	      0.00000000	     -6.76136302	    -13.81985207	      7.00683422	     98.88743761	     63.84454554	      0.00000000	      0.00000000
      1.02500000	      2.07168071	      3.42588624	      5.89859905	      2.87140205	      0.96192825	      0.63660245	     28.43977761	     -2.93720548	      3.06258043	     90.69343348	      1.58289902	      6.17320358	      0.00000000	      0.00000000	      3.64150951	      7.45395441	      6.00946672	     43.70422487	      0.76278262	     21.37803930	      0.00000000	      0.00000000	    -11.16777475	     -3.54210632	    -13.31827153	    -18.81547097	    -14.80595005	     22.11711104	     61.42600845	     57.19355425	      0.00000000	      0.00000000	     -6.70615181	    -13.77308489	      6.96189733	     99.56538080	     63.97464966	      0.00000000	      0.00000000
